<mxfile host="app.diagrams.net" modified="2023-10-25T13:05:28.367Z" agent="Mozilla/5.0 (Windows NT 10.0; Win64; x64) AppleWebKit/537.36 (KHTML, like Gecko) Chrome/118.0.0.0 Safari/537.36" etag="pPSMZ3plXAuELjb7Bpev" version="22.0.8" type="github">
  <diagram id="C5RBs43oDa-KdzZeNtuy" name="Page-1">
    <mxGraphModel dx="1473" dy="164" grid="1" gridSize="10" guides="1" tooltips="1" connect="1" arrows="1" fold="1" page="1" pageScale="1" pageWidth="1169" pageHeight="827" background="#CCCCCC" math="0" shadow="0">
      <root>
        <mxCell id="WIyWlLk6GJQsqaUBKTNV-0" />
        <mxCell id="WIyWlLk6GJQsqaUBKTNV-1" parent="WIyWlLk6GJQsqaUBKTNV-0" />
        <mxCell id="P9E268Bw0gb1X7N-w08P-5" value="ministry.py" style="shape=folder;fontStyle=1;spacingTop=10;tabWidth=40;tabHeight=14;tabPosition=left;html=1;whiteSpace=wrap;flipV=0;direction=north;horizontal=0;" vertex="1" parent="WIyWlLk6GJQsqaUBKTNV-1">
          <mxGeometry x="-15" y="140" width="40" height="70" as="geometry" />
        </mxCell>
        <mxCell id="P9E268Bw0gb1X7N-w08P-104" value="goes to lib" style="edgeStyle=orthogonalEdgeStyle;orthogonalLoop=1;jettySize=auto;html=1;strokeWidth=2;curved=1;" edge="1" parent="WIyWlLk6GJQsqaUBKTNV-1" source="P9E268Bw0gb1X7N-w08P-6" target="P9E268Bw0gb1X7N-w08P-27">
          <mxGeometry relative="1" as="geometry">
            <Array as="points">
              <mxPoint x="-27" y="200" />
              <mxPoint x="-27" y="240" />
            </Array>
          </mxGeometry>
        </mxCell>
        <mxCell id="P9E268Bw0gb1X7N-w08P-105" value="wants to read a book&lt;br&gt;(url given)" style="edgeStyle=orthogonalEdgeStyle;orthogonalLoop=1;jettySize=auto;html=1;strokeWidth=2;shadow=0;curved=1;" edge="1" parent="WIyWlLk6GJQsqaUBKTNV-1" source="P9E268Bw0gb1X7N-w08P-6" target="P9E268Bw0gb1X7N-w08P-28">
          <mxGeometry relative="1" as="geometry">
            <mxPoint x="140" y="460" as="targetPoint" />
            <Array as="points">
              <mxPoint x="-215" y="210" />
              <mxPoint x="-10" y="210" />
              <mxPoint x="-10" y="457" />
            </Array>
          </mxGeometry>
        </mxCell>
        <mxCell id="P9E268Bw0gb1X7N-w08P-6" value="Actor" style="shape=umlActor;verticalLabelPosition=bottom;verticalAlign=top;html=1;fillColor=#d5e8d4;strokeColor=#82b366;" vertex="1" parent="WIyWlLk6GJQsqaUBKTNV-1">
          <mxGeometry x="-290" y="145" width="30" height="60" as="geometry" />
        </mxCell>
        <mxCell id="P9E268Bw0gb1X7N-w08P-15" value="LibraryMinistry" style="swimlane;fontStyle=1;align=center;verticalAlign=top;childLayout=stackLayout;horizontal=1;startSize=26;horizontalStack=0;resizeParent=1;resizeParentMax=0;resizeLast=0;collapsible=1;marginBottom=0;whiteSpace=wrap;html=1;fillColor=#fff2cc;strokeColor=#d6b656;" vertex="1" parent="WIyWlLk6GJQsqaUBKTNV-1">
          <mxGeometry x="25" y="140" width="160" height="112" as="geometry">
            <mxRectangle x="110" y="200" width="100" height="30" as="alternateBounds" />
          </mxGeometry>
        </mxCell>
        <mxCell id="P9E268Bw0gb1X7N-w08P-19" value="- _libraries: dict" style="text;strokeColor=none;fillColor=none;align=left;verticalAlign=top;spacingLeft=4;spacingRight=4;overflow=hidden;rotatable=0;points=[[0,0.5],[1,0.5]];portConstraint=eastwest;whiteSpace=wrap;html=1;" vertex="1" parent="P9E268Bw0gb1X7N-w08P-15">
          <mxGeometry y="26" width="160" height="26" as="geometry" />
        </mxCell>
        <mxCell id="P9E268Bw0gb1X7N-w08P-17" value="" style="line;strokeWidth=1;fillColor=none;align=left;verticalAlign=middle;spacingTop=-1;spacingLeft=3;spacingRight=3;rotatable=0;labelPosition=right;points=[];portConstraint=eastwest;strokeColor=inherit;" vertex="1" parent="P9E268Bw0gb1X7N-w08P-15">
          <mxGeometry y="52" width="160" height="8" as="geometry" />
        </mxCell>
        <mxCell id="P9E268Bw0gb1X7N-w08P-18" value="+ build_library(str): Library" style="text;strokeColor=none;fillColor=none;align=left;verticalAlign=top;spacingLeft=4;spacingRight=4;overflow=hidden;rotatable=0;points=[[0,0.5],[1,0.5]];portConstraint=eastwest;whiteSpace=wrap;html=1;" vertex="1" parent="P9E268Bw0gb1X7N-w08P-15">
          <mxGeometry y="60" width="160" height="26" as="geometry" />
        </mxCell>
        <mxCell id="P9E268Bw0gb1X7N-w08P-27" value="+ get_library(str): Library" style="text;strokeColor=none;fillColor=none;align=left;verticalAlign=top;spacingLeft=4;spacingRight=4;overflow=hidden;rotatable=0;points=[[0,0.5],[1,0.5]];portConstraint=eastwest;whiteSpace=wrap;html=1;" vertex="1" parent="P9E268Bw0gb1X7N-w08P-15">
          <mxGeometry y="86" width="160" height="26" as="geometry" />
        </mxCell>
        <mxCell id="P9E268Bw0gb1X7N-w08P-23" value="Library" style="swimlane;fontStyle=1;align=center;verticalAlign=top;childLayout=stackLayout;horizontal=1;startSize=26;horizontalStack=0;resizeParent=1;resizeParentMax=0;resizeLast=0;collapsible=1;marginBottom=0;whiteSpace=wrap;html=1;" vertex="1" parent="WIyWlLk6GJQsqaUBKTNV-1">
          <mxGeometry x="185" y="280" width="270" height="294" as="geometry" />
        </mxCell>
        <mxCell id="P9E268Bw0gb1X7N-w08P-24" value="+ root: Path" style="text;strokeColor=none;fillColor=none;align=left;verticalAlign=top;spacingLeft=4;spacingRight=4;overflow=hidden;rotatable=0;points=[[0,0.5],[1,0.5]];portConstraint=eastwest;whiteSpace=wrap;html=1;" vertex="1" parent="P9E268Bw0gb1X7N-w08P-23">
          <mxGeometry y="26" width="270" height="26" as="geometry" />
        </mxCell>
        <mxCell id="P9E268Bw0gb1X7N-w08P-30" value="- _metadata_file: Path" style="text;strokeColor=none;fillColor=none;align=left;verticalAlign=top;spacingLeft=4;spacingRight=4;overflow=hidden;rotatable=0;points=[[0,0.5],[1,0.5]];portConstraint=eastwest;whiteSpace=wrap;html=1;" vertex="1" parent="P9E268Bw0gb1X7N-w08P-23">
          <mxGeometry y="52" width="270" height="26" as="geometry" />
        </mxCell>
        <mxCell id="P9E268Bw0gb1X7N-w08P-33" value="- _books: dict[id: IBook]" style="text;strokeColor=none;fillColor=none;align=left;verticalAlign=top;spacingLeft=4;spacingRight=4;overflow=hidden;rotatable=0;points=[[0,0.5],[1,0.5]];portConstraint=eastwest;whiteSpace=wrap;html=1;" vertex="1" parent="P9E268Bw0gb1X7N-w08P-23">
          <mxGeometry y="78" width="270" height="26" as="geometry" />
        </mxCell>
        <mxCell id="P9E268Bw0gb1X7N-w08P-36" value="- _download_manager: DownloadManager" style="text;strokeColor=none;fillColor=none;align=left;verticalAlign=top;spacingLeft=4;spacingRight=4;overflow=hidden;rotatable=0;points=[[0,0.5],[1,0.5]];portConstraint=eastwest;whiteSpace=wrap;html=1;" vertex="1" parent="P9E268Bw0gb1X7N-w08P-23">
          <mxGeometry y="104" width="270" height="26" as="geometry" />
        </mxCell>
        <mxCell id="P9E268Bw0gb1X7N-w08P-35" value="- _event_dispatcher: BookEventSystem" style="text;strokeColor=none;fillColor=none;align=left;verticalAlign=top;spacingLeft=4;spacingRight=4;overflow=hidden;rotatable=0;points=[[0,0.5],[1,0.5]];portConstraint=eastwest;whiteSpace=wrap;html=1;" vertex="1" parent="P9E268Bw0gb1X7N-w08P-23">
          <mxGeometry y="130" width="270" height="26" as="geometry" />
        </mxCell>
        <mxCell id="P9E268Bw0gb1X7N-w08P-25" value="" style="line;strokeWidth=1;fillColor=none;align=left;verticalAlign=middle;spacingTop=-1;spacingLeft=3;spacingRight=3;rotatable=0;labelPosition=right;points=[];portConstraint=eastwest;strokeColor=inherit;" vertex="1" parent="P9E268Bw0gb1X7N-w08P-23">
          <mxGeometry y="156" width="270" height="8" as="geometry" />
        </mxCell>
        <mxCell id="P9E268Bw0gb1X7N-w08P-28" value="+ get_book(url) : IBook" style="text;strokeColor=none;fillColor=none;align=left;verticalAlign=top;spacingLeft=4;spacingRight=4;overflow=hidden;rotatable=0;points=[[0,0.5],[1,0.5]];portConstraint=eastwest;whiteSpace=wrap;html=1;" vertex="1" parent="P9E268Bw0gb1X7N-w08P-23">
          <mxGeometry y="164" width="270" height="26" as="geometry" />
        </mxCell>
        <mxCell id="P9E268Bw0gb1X7N-w08P-26" value="- _ask_librarian(id): IBook&lt;br&gt;" style="text;strokeColor=none;fillColor=none;align=left;verticalAlign=top;spacingLeft=4;spacingRight=4;overflow=hidden;rotatable=0;points=[[0,0.5],[1,0.5]];portConstraint=eastwest;whiteSpace=wrap;html=1;" vertex="1" parent="P9E268Bw0gb1X7N-w08P-23">
          <mxGeometry y="190" width="270" height="26" as="geometry" />
        </mxCell>
        <mxCell id="P9E268Bw0gb1X7N-w08P-29" value="+ load_metadata(): dict" style="text;strokeColor=none;fillColor=none;align=left;verticalAlign=top;spacingLeft=4;spacingRight=4;overflow=hidden;rotatable=0;points=[[0,0.5],[1,0.5]];portConstraint=eastwest;whiteSpace=wrap;html=1;" vertex="1" parent="P9E268Bw0gb1X7N-w08P-23">
          <mxGeometry y="216" width="270" height="26" as="geometry" />
        </mxCell>
        <mxCell id="P9E268Bw0gb1X7N-w08P-31" value="+ store_book(IBook, bool): None" style="text;strokeColor=none;fillColor=none;align=left;verticalAlign=top;spacingLeft=4;spacingRight=4;overflow=hidden;rotatable=0;points=[[0,0.5],[1,0.5]];portConstraint=eastwest;whiteSpace=wrap;html=1;" vertex="1" parent="P9E268Bw0gb1X7N-w08P-23">
          <mxGeometry y="242" width="270" height="26" as="geometry" />
        </mxCell>
        <mxCell id="P9E268Bw0gb1X7N-w08P-34" value="+ get_book_path(IBook): Path" style="text;strokeColor=none;fillColor=none;align=left;verticalAlign=top;spacingLeft=4;spacingRight=4;overflow=hidden;rotatable=0;points=[[0,0.5],[1,0.5]];portConstraint=eastwest;whiteSpace=wrap;html=1;" vertex="1" parent="P9E268Bw0gb1X7N-w08P-23">
          <mxGeometry y="268" width="270" height="26" as="geometry" />
        </mxCell>
        <mxCell id="P9E268Bw0gb1X7N-w08P-39" value="library.py" style="shape=folder;fontStyle=1;spacingTop=10;tabWidth=40;tabHeight=14;tabPosition=left;html=1;whiteSpace=wrap;direction=north;horizontal=0;" vertex="1" parent="WIyWlLk6GJQsqaUBKTNV-1">
          <mxGeometry x="140" y="280" width="45" height="60" as="geometry" />
        </mxCell>
        <mxCell id="P9E268Bw0gb1X7N-w08P-42" value="return" style="html=1;verticalAlign=bottom;endArrow=open;dashed=1;endSize=8;curved=0;rounded=0;entryX=0.5;entryY=0;entryDx=0;entryDy=0;exitX=1;exitY=0.5;exitDx=0;exitDy=0;" edge="1" parent="WIyWlLk6GJQsqaUBKTNV-1" source="P9E268Bw0gb1X7N-w08P-18" target="P9E268Bw0gb1X7N-w08P-23">
          <mxGeometry relative="1" as="geometry">
            <mxPoint x="280" y="140" as="sourcePoint" />
            <mxPoint x="290" y="330" as="targetPoint" />
            <Array as="points">
              <mxPoint x="320" y="213" />
            </Array>
          </mxGeometry>
        </mxCell>
        <mxCell id="P9E268Bw0gb1X7N-w08P-43" value="return" style="html=1;verticalAlign=bottom;endArrow=open;dashed=1;endSize=8;curved=0;rounded=0;exitX=1;exitY=0.5;exitDx=0;exitDy=0;" edge="1" parent="WIyWlLk6GJQsqaUBKTNV-1" source="P9E268Bw0gb1X7N-w08P-27" target="P9E268Bw0gb1X7N-w08P-23">
          <mxGeometry relative="1" as="geometry">
            <mxPoint x="195" y="223" as="sourcePoint" />
            <mxPoint x="440" y="250" as="targetPoint" />
            <Array as="points">
              <mxPoint x="320" y="240" />
            </Array>
          </mxGeometry>
        </mxCell>
        <mxCell id="P9E268Bw0gb1X7N-w08P-53" value="Comment1 body" style="shape=note2;boundedLbl=1;whiteSpace=wrap;html=1;size=25;verticalAlign=top;align=center;fillColor=#f8cecc;strokeColor=#b85450;" vertex="1" parent="WIyWlLk6GJQsqaUBKTNV-1">
          <mxGeometry x="185" y="30" width="120" height="60" as="geometry" />
        </mxCell>
        <mxCell id="P9E268Bw0gb1X7N-w08P-54" value="DownloadManager" style="swimlane;fontStyle=1;align=center;verticalAlign=top;childLayout=stackLayout;horizontal=1;startSize=26;horizontalStack=0;resizeParent=1;resizeParentMax=0;resizeLast=0;collapsible=1;marginBottom=0;whiteSpace=wrap;html=1;" vertex="1" parent="WIyWlLk6GJQsqaUBKTNV-1">
          <mxGeometry x="640" y="420" width="235" height="244" as="geometry" />
        </mxCell>
        <mxCell id="P9E268Bw0gb1X7N-w08P-55" value="+ download_dir: Path" style="text;strokeColor=none;fillColor=none;align=left;verticalAlign=top;spacingLeft=4;spacingRight=4;overflow=hidden;rotatable=0;points=[[0,0.5],[1,0.5]];portConstraint=eastwest;whiteSpace=wrap;html=1;" vertex="1" parent="P9E268Bw0gb1X7N-w08P-54">
          <mxGeometry y="26" width="235" height="26" as="geometry" />
        </mxCell>
        <mxCell id="P9E268Bw0gb1X7N-w08P-60" value="+ executor: ThreadPoolExecutor" style="text;strokeColor=none;fillColor=none;align=left;verticalAlign=top;spacingLeft=4;spacingRight=4;overflow=hidden;rotatable=0;points=[[0,0.5],[1,0.5]];portConstraint=eastwest;whiteSpace=wrap;html=1;" vertex="1" parent="P9E268Bw0gb1X7N-w08P-54">
          <mxGeometry y="52" width="235" height="26" as="geometry" />
        </mxCell>
        <mxCell id="P9E268Bw0gb1X7N-w08P-64" value="+ futures: list" style="text;strokeColor=none;fillColor=none;align=left;verticalAlign=top;spacingLeft=4;spacingRight=4;overflow=hidden;rotatable=0;points=[[0,0.5],[1,0.5]];portConstraint=eastwest;whiteSpace=wrap;html=1;" vertex="1" parent="P9E268Bw0gb1X7N-w08P-54">
          <mxGeometry y="78" width="235" height="26" as="geometry" />
        </mxCell>
        <mxCell id="P9E268Bw0gb1X7N-w08P-63" value="- _event_dispatcher: EventSystem" style="text;strokeColor=none;fillColor=none;align=left;verticalAlign=top;spacingLeft=4;spacingRight=4;overflow=hidden;rotatable=0;points=[[0,0.5],[1,0.5]];portConstraint=eastwest;whiteSpace=wrap;html=1;" vertex="1" parent="P9E268Bw0gb1X7N-w08P-54">
          <mxGeometry y="104" width="235" height="26" as="geometry" />
        </mxCell>
        <mxCell id="P9E268Bw0gb1X7N-w08P-56" value="" style="line;strokeWidth=1;fillColor=none;align=left;verticalAlign=middle;spacingTop=-1;spacingLeft=3;spacingRight=3;rotatable=0;labelPosition=right;points=[];portConstraint=eastwest;strokeColor=inherit;" vertex="1" parent="P9E268Bw0gb1X7N-w08P-54">
          <mxGeometry y="130" width="235" height="10" as="geometry" />
        </mxCell>
        <mxCell id="P9E268Bw0gb1X7N-w08P-88" style="edgeStyle=orthogonalEdgeStyle;rounded=0;orthogonalLoop=1;jettySize=auto;html=1;dashed=1;dashPattern=1 4;" edge="1" parent="P9E268Bw0gb1X7N-w08P-54" source="P9E268Bw0gb1X7N-w08P-57">
          <mxGeometry relative="1" as="geometry">
            <mxPoint y="180" as="targetPoint" />
            <Array as="points">
              <mxPoint x="-10" y="153" />
              <mxPoint x="-10" y="180" />
            </Array>
          </mxGeometry>
        </mxCell>
        <mxCell id="P9E268Bw0gb1X7N-w08P-57" value="+ add(IBook | url): Future" style="text;strokeColor=none;fillColor=none;align=left;verticalAlign=top;spacingLeft=4;spacingRight=4;overflow=hidden;rotatable=0;points=[[0,0.5],[1,0.5]];portConstraint=eastwest;whiteSpace=wrap;html=1;" vertex="1" parent="P9E268Bw0gb1X7N-w08P-54">
          <mxGeometry y="140" width="235" height="26" as="geometry" />
        </mxCell>
        <mxCell id="P9E268Bw0gb1X7N-w08P-58" value="- _start_download (IBook | url): None" style="text;strokeColor=none;fillColor=none;align=left;verticalAlign=top;spacingLeft=4;spacingRight=4;overflow=hidden;rotatable=0;points=[[0,0.5],[1,0.5]];portConstraint=eastwest;whiteSpace=wrap;html=1;" vertex="1" parent="P9E268Bw0gb1X7N-w08P-54">
          <mxGeometry y="166" width="235" height="26" as="geometry" />
        </mxCell>
        <mxCell id="P9E268Bw0gb1X7N-w08P-59" value="- _download_book_from_url(url): IBook" style="text;strokeColor=none;fillColor=none;align=left;verticalAlign=top;spacingLeft=4;spacingRight=4;overflow=hidden;rotatable=0;points=[[0,0.5],[1,0.5]];portConstraint=eastwest;whiteSpace=wrap;html=1;" vertex="1" parent="P9E268Bw0gb1X7N-w08P-54">
          <mxGeometry y="192" width="235" height="26" as="geometry" />
        </mxCell>
        <mxCell id="P9E268Bw0gb1X7N-w08P-61" value="- _resume_download_book(IBook): IBook" style="text;strokeColor=none;fillColor=none;align=left;verticalAlign=top;spacingLeft=4;spacingRight=4;overflow=hidden;rotatable=0;points=[[0,0.5],[1,0.5]];portConstraint=eastwest;whiteSpace=wrap;html=1;" vertex="1" parent="P9E268Bw0gb1X7N-w08P-54">
          <mxGeometry y="218" width="235" height="26" as="geometry" />
        </mxCell>
        <mxCell id="P9E268Bw0gb1X7N-w08P-89" style="edgeStyle=orthogonalEdgeStyle;rounded=0;orthogonalLoop=1;jettySize=auto;html=1;dashed=1;dashPattern=1 4;entryX=0.999;entryY=0.439;entryDx=0;entryDy=0;entryPerimeter=0;" edge="1" parent="P9E268Bw0gb1X7N-w08P-54" source="P9E268Bw0gb1X7N-w08P-58" target="P9E268Bw0gb1X7N-w08P-61">
          <mxGeometry relative="1" as="geometry">
            <mxPoint x="240" y="230" as="targetPoint" />
            <Array as="points">
              <mxPoint x="260" y="179" />
              <mxPoint x="260" y="229" />
            </Array>
          </mxGeometry>
        </mxCell>
        <mxCell id="P9E268Bw0gb1X7N-w08P-90" style="edgeStyle=orthogonalEdgeStyle;rounded=0;orthogonalLoop=1;jettySize=auto;html=1;dashed=1;dashPattern=1 4;entryX=1;entryY=0.5;entryDx=0;entryDy=0;" edge="1" parent="P9E268Bw0gb1X7N-w08P-54" source="P9E268Bw0gb1X7N-w08P-58" target="P9E268Bw0gb1X7N-w08P-59">
          <mxGeometry relative="1" as="geometry">
            <mxPoint x="250" y="210" as="targetPoint" />
            <Array as="points">
              <mxPoint x="250" y="179" />
              <mxPoint x="250" y="205" />
            </Array>
          </mxGeometry>
        </mxCell>
        <mxCell id="P9E268Bw0gb1X7N-w08P-76" style="rounded=0;orthogonalLoop=1;jettySize=auto;html=1;exitX=1;exitY=0.5;exitDx=0;exitDy=0;entryX=0.5;entryY=0;entryDx=0;entryDy=0;jumpStyle=none;edgeStyle=orthogonalEdgeStyle;" edge="1" parent="WIyWlLk6GJQsqaUBKTNV-1" source="P9E268Bw0gb1X7N-w08P-36" target="P9E268Bw0gb1X7N-w08P-54">
          <mxGeometry relative="1" as="geometry">
            <mxPoint x="690" y="210" as="targetPoint" />
          </mxGeometry>
        </mxCell>
        <mxCell id="P9E268Bw0gb1X7N-w08P-92" value="" style="verticalLabelPosition=bottom;verticalAlign=top;html=1;shape=mxgraph.flowchart.summing_function;" vertex="1" parent="WIyWlLk6GJQsqaUBKTNV-1">
          <mxGeometry x="360" y="750" width="30" height="30" as="geometry" />
        </mxCell>
        <mxCell id="P9E268Bw0gb1X7N-w08P-94" value="utils" style="swimlane;fontStyle=1;align=center;verticalAlign=top;childLayout=stackLayout;horizontal=1;startSize=26;horizontalStack=0;resizeParent=1;resizeParentMax=0;resizeLast=0;collapsible=1;marginBottom=0;whiteSpace=wrap;html=1;fillColor=#d5e8d4;strokeColor=#82b366;" vertex="1" parent="WIyWlLk6GJQsqaUBKTNV-1">
          <mxGeometry x="-240" y="490" width="110" height="60" as="geometry" />
        </mxCell>
        <mxCell id="P9E268Bw0gb1X7N-w08P-96" value="" style="line;strokeWidth=1;fillColor=none;align=left;verticalAlign=middle;spacingTop=-1;spacingLeft=3;spacingRight=3;rotatable=0;labelPosition=right;points=[];portConstraint=eastwest;strokeColor=inherit;" vertex="1" parent="P9E268Bw0gb1X7N-w08P-94">
          <mxGeometry y="26" width="110" height="8" as="geometry" />
        </mxCell>
        <mxCell id="P9E268Bw0gb1X7N-w08P-97" value="+ hash_url(str): id" style="text;strokeColor=none;fillColor=none;align=left;verticalAlign=top;spacingLeft=4;spacingRight=4;overflow=hidden;rotatable=0;points=[[0,0.5],[1,0.5]];portConstraint=eastwest;whiteSpace=wrap;html=1;" vertex="1" parent="P9E268Bw0gb1X7N-w08P-94">
          <mxGeometry y="34" width="110" height="26" as="geometry" />
        </mxCell>
        <mxCell id="P9E268Bw0gb1X7N-w08P-93" value="get&amp;nbsp; hash from url" style="edgeStyle=orthogonalEdgeStyle;rounded=0;orthogonalLoop=1;jettySize=auto;html=1;exitX=0;exitY=0.5;exitDx=0;exitDy=0;dashed=1;dashPattern=1 4;entryX=1;entryY=0.5;entryDx=0;entryDy=0;" edge="1" parent="WIyWlLk6GJQsqaUBKTNV-1" source="P9E268Bw0gb1X7N-w08P-26" target="P9E268Bw0gb1X7N-w08P-97">
          <mxGeometry x="0.4222" y="6" relative="1" as="geometry">
            <mxPoint x="-120" y="630" as="targetPoint" />
            <Array as="points">
              <mxPoint x="185" y="450" />
              <mxPoint x="-120" y="450" />
              <mxPoint x="-120" y="457" />
            </Array>
            <mxPoint as="offset" />
          </mxGeometry>
        </mxCell>
        <mxCell id="P9E268Bw0gb1X7N-w08P-103" value="stores" style="edgeStyle=orthogonalEdgeStyle;rounded=0;orthogonalLoop=1;jettySize=auto;html=1;fillColor=#60a917;strokeColor=#2D7600;dashed=1;dashPattern=1 2;" edge="1" parent="WIyWlLk6GJQsqaUBKTNV-1" source="P9E268Bw0gb1X7N-w08P-99" target="P9E268Bw0gb1X7N-w08P-33">
          <mxGeometry x="-0.3501" relative="1" as="geometry">
            <Array as="points">
              <mxPoint x="-10" y="750" />
              <mxPoint x="-10" y="371" />
            </Array>
            <mxPoint as="offset" />
          </mxGeometry>
        </mxCell>
        <mxCell id="P9E268Bw0gb1X7N-w08P-99" value="metadata.json" style="strokeWidth=2;html=1;shape=mxgraph.flowchart.database;whiteSpace=wrap;fillColor=#dae8fc;strokeColor=#6c8ebf;" vertex="1" parent="WIyWlLk6GJQsqaUBKTNV-1">
          <mxGeometry x="190" y="600" width="110" height="60" as="geometry" />
        </mxCell>
        <mxCell id="P9E268Bw0gb1X7N-w08P-102" value="write" style="edgeStyle=orthogonalEdgeStyle;rounded=0;orthogonalLoop=1;jettySize=auto;html=1;exitX=0;exitY=0.5;exitDx=0;exitDy=0;fillColor=#d80073;strokeColor=#A50040;" edge="1" parent="WIyWlLk6GJQsqaUBKTNV-1" source="P9E268Bw0gb1X7N-w08P-31" target="P9E268Bw0gb1X7N-w08P-99">
          <mxGeometry relative="1" as="geometry">
            <Array as="points">
              <mxPoint x="150" y="535" />
              <mxPoint x="150" y="760" />
            </Array>
          </mxGeometry>
        </mxCell>
        <mxCell id="P9E268Bw0gb1X7N-w08P-101" value="read" style="edgeStyle=orthogonalEdgeStyle;rounded=0;orthogonalLoop=1;jettySize=auto;html=1;exitX=0.008;exitY=0.729;exitDx=0;exitDy=0;exitPerimeter=0;fillColor=#60a917;strokeColor=#2D7600;dashed=1;dashPattern=1 1;" edge="1" parent="WIyWlLk6GJQsqaUBKTNV-1" source="P9E268Bw0gb1X7N-w08P-29" target="P9E268Bw0gb1X7N-w08P-99">
          <mxGeometry relative="1" as="geometry">
            <mxPoint x="60" y="510" as="sourcePoint" />
            <Array as="points">
              <mxPoint x="40" y="515" />
            </Array>
          </mxGeometry>
        </mxCell>
        <mxCell id="P9E268Bw0gb1X7N-w08P-106" value="asks if book exists" style="edgeStyle=orthogonalEdgeStyle;rounded=0;orthogonalLoop=1;jettySize=auto;html=1;exitX=1;exitY=0.5;exitDx=0;exitDy=0;dashed=1;dashPattern=1 4;" edge="1" parent="WIyWlLk6GJQsqaUBKTNV-1" source="P9E268Bw0gb1X7N-w08P-97" target="P9E268Bw0gb1X7N-w08P-26">
          <mxGeometry relative="1" as="geometry">
            <mxPoint x="-50" y="490" as="targetPoint" />
            <Array as="points">
              <mxPoint x="-70" y="537" />
              <mxPoint x="-70" y="490" />
            </Array>
          </mxGeometry>
        </mxCell>
      </root>
    </mxGraphModel>
  </diagram>
</mxfile>
